<?xml version="1.0" encoding="UTF-8" standalone="no"?>
<!DOCTYPE svg PUBLIC "-//W3C//DTD SVG 1.1//EN" "http://www.w3.org/Graphics/SVG/1.1/DTD/svg11.dtd">
<svg xmlns="http://www.w3.org/2000/svg" xmlns:xlink="http://www.w3.org/1999/xlink" version="1.1" width="263.045pt" height="113.826pt" viewBox="0 0 263.045 113.826">
<path transform="matrix(1,0,0,-1,7.13,156.12599)" stroke-width="1.59404" stroke-linecap="butt" stroke-miterlimit="10" stroke-linejoin="miter" fill="none" stroke="#000080" d="M 0 56.69362 L 56.69362 141.73404 L 184.25424 56.69362 Z "/>
<path transform="matrix(1,0,0,-1,7.13,156.12599)" stroke-width="1.59404" stroke-linecap="butt" stroke-miterlimit="10" stroke-linejoin="miter" fill="none" stroke="#000080" d="M 184.25424 56.69362 L 255.12128 56.69362 "/>
<symbol id="font_0_5">
<path d="M .11800001 .078 C .108 .039 .106 .031000002 .027000003 .031000002 C .009999998 .031000002 0 .031000002 0 .011000001 C 0 0 .009 0 .027000003 0 L .38400004 0 C .54200008 0 .66 .11800001 .66 .216 C .66 .28800003 .60200008 .34600003 .50500008 .35700003 C .609 .37600003 .71400007 .45000003 .71400007 .545 C .71400007 .619 .64800009 .683 .52800008 .683 L .192 .683 C .17300001 .683 .16300002 .683 .16300002 .66300007 C .16300002 .652 .17200002 .652 .19100002 .652 C .19300002 .652 .21200001 .652 .22900003 .65000006 C .24700001 .648 .256 .647 .256 .634 C .256 .63000008 .25500003 .62700006 .252 .615 L .11800001 .078 M .26900003 .36600004 L .33100004 .614 C .34000004 .64900007 .342 .652 .38500003 .652 L .51400008 .652 C .60200008 .652 .623 .59300008 .623 .549 C .623 .46100004 .53700008 .36600004 .41500003 .36600004 L .26900003 .36600004 M .224 .031000002 C .21000001 .031000002 .208 .031000002 .20200002 .032 C .192 .033 .18900001 .034 .18900001 .042000005 C .18900001 .045 .18900001 .047000003 .194 .065000008 L .263 .344 L .45200003 .344 C .54800006 .344 .56700006 .27 .56700006 .22700002 C .56700006 .128 .47800005 .031000002 .36 .031000002 L .224 .031000002 Z "/>
</symbol>
<use xlink:href="#font_0_5" transform="matrix(9.9626,0,0,-9.9626,60.213434,10.201996)"/>
<symbol id="font_0_4">
<path d="M .14400001 .115 C .10400002 .048 .065 .034 .021000002 .031000002 C .009000003 .030000002 0 .030000002 0 .011000001 C 0 .0050000005 .0050000029 0 .013 0 C .040000004 0 .07100001 .003 .09900001 .003 C .13200002 .003 .16700001 0 .19900002 0 C .20500002 0 .21800003 0 .21800003 .019000002 C .21800003 .030000002 .20900002 .031000002 .20200002 .031000002 C .17900002 .033 .15500002 .041 .15500002 .066 C .15500002 .078 .16100002 .089 .16900002 .10300001 L .245 .231 L .49600003 .231 C .49800007 .21000001 .512 .074 .512 .064 C .512 .034 .46000005 .031000002 .44000004 .031000002 C .42600004 .031000002 .41600005 .031000002 .41600005 .011000001 C .41600005 0 .42800004 0 .43000005 0 C .47100006 0 .514 .003 .555 .003 C .58 .003 .643 0 .668 0 C .674 0 .686 0 .686 .020000002 C .686 .031000002 .676 .031000002 .663 .031000002 C .601 .031000002 .601 .038000004 .598 .067 L .537 .69200006 C .535 .712 .535 .716 .518 .716 C .502 .716 .49800007 .70900008 .492 .69900009 L .14400001 .115 M .26400004 .26200003 L .46100004 .592 L .493 .26200003 L .26400004 .26200003 Z "/>
</symbol>
<use xlink:href="#font_0_4" transform="matrix(9.9626,0,0,-9.9626,3.742691,110.43199)"/>
<symbol id="font_0_6">
<path d="M .71000006 .71700009 C .71000006 .72 .708 .72700008 .699 .72700008 C .69600006 .72700008 .69500008 .7260001 .684 .71500006 L .614 .6380001 C .605 .65200009 .559 .72700008 .448 .72700008 C .22500001 .72700008 0 .50600007 0 .27400003 C 0 .109000008 .118000019 0 .271 0 C .358 0 .43400003 .040000004 .487 .086 C .58000007 .16800002 .597 .25900004 .597 .26200003 C .597 .272 .587 .272 .58500006 .272 C .579 .272 .574 .27 .572 .26200003 C .563 .23300001 .54 .162 .47100003 .104 C .402 .048 .33900003 .031000004 .287 .031000004 C .19700001 .031000004 .091000009 .083000008 .091000009 .23900001 C .091000009 .29600004 .112 .45800004 .21200003 .57500007 C .273 .646 .367 .69600006 .45600004 .69600006 C .558 .69600006 .61700007 .619 .61700007 .503 C .61700007 .46300004 .614 .46200005 .614 .45200003 C .614 .44200004 .625 .44200004 .629 .44200004 C .642 .44200004 .642 .44400005 .647 .46200005 L .71000006 .71700009 Z "/>
</symbol>
<use xlink:href="#font_0_6" transform="matrix(9.9626,0,0,-9.9626,187.96413,110.65117)"/>
<path transform="matrix(1,0,0,-1,7.13,156.12599)" stroke-width="1" stroke-linecap="butt" stroke-miterlimit="10" stroke-linejoin="miter" fill="none" stroke="#000080" d="M 198.42765 56.69362 C 198.42765 64.52145 192.08209 70.867 184.25424 70.867 C 179.51386 70.867 175.08585 68.49501 172.4583 64.54977 "/>
<symbol id="font_0_3">
<path d="M .25100003 .23700002 C .26700003 .23700002 .28500004 .23700002 .28500004 .254 C .28500004 .268 .27300004 .268 .256 .268 L .094 .268 C .118 .35300002 .17400001 .411 .26500003 .411 L .29600004 .411 C .31300003 .411 .32900004 .411 .32900004 .42800004 C .32900004 .44200004 .316 .44200004 .29900003 .44200004 L .26400004 .44200004 C .134 .44200004 0 .34200005 0 .18900001 C 0 .079 .075 0 .18100001 0 C .246 0 .31100003 .040000004 .31100003 .051000004 C .31100003 .054 .31000004 .065000008 .30100004 .065000008 C .29900003 .065000008 .29700003 .065000008 .28800003 .059 C .25700004 .039 .22000002 .022000002 .183 .022000002 C .125 .022000002 .075 .064 .075 .15200001 C .075 .18700002 .083000008 .22500003 .085999999 .23700002 L .25100003 .23700002 Z "/>
</symbol>
<use xlink:href="#font_0_3" transform="matrix(9.9626,0,0,-9.9626,191.88025,94.90458)" fill="#000080"/>
<path transform="matrix(1,0,0,-1,7.13,156.12599)" stroke-width="1" stroke-linecap="butt" stroke-miterlimit="10" stroke-linejoin="miter" fill="none" stroke="#000080" d="M 47.26608 127.57875 C 55.08394 122.37201 65.64217 124.48868 70.8489 132.30652 "/>
<symbol id="font_0_2">
<path d="M .54600009 .763 C .54600009 .83800008 .49100004 .90000006 .41 .90000006 C .352 .90000006 .324 .88400009 .289 .85800006 C .23400001 .818 .179 .721 .16000001 .64500007 L .0010000002 .00999999 C 0 .0059999974 .005000001 0 .013000002 0 C .021 0 .024000003 .002000004 .025 .004999995 L .095000009 .28100003 C .11400001 .221 .158 .184 .23100002 .184 C .304 .184 .379 .21900001 .424 .263 C .47200004 .30900003 .50400009 .37300004 .50400009 .44700004 C .50400009 .51900008 .467 .571 .431 .596 C .489 .62900009 .54600009 .691 .54600009 .763 M .366 .597 C .35300002 .592 .342 .59000006 .318 .59000006 C .304 .59000006 .284 .589 .274 .594 C .276 .60400006 .312 .602 .323 .602 C .344 .602 .35300002 .602 .366 .597 M .49000005 .786 C .49000005 .716 .45200003 .64400008 .4 .61300006 C .373 .623 .35300002 .625 .323 .625 C .30200003 .625 .246 .62600007 .246 .59300008 C .24500002 .56500008 .297 .568 .315 .568 C .352 .568 .367 .569 .397 .58100005 C .435 .545 .44 .51400008 .441 .46800003 C .44300003 .41000004 .419 .335 .391 .296 C .352 .24200002 .285 .206 .228 .206 C .15200001 .206 .11400001 .264 .11400001 .335 C .11400001 .34500004 .11400001 .36 .119 .379 L .18300002 .632 C .20500002 .71800008 .277 .87700006 .397 .87700006 C .455 .87700006 .49000005 .846 .49000005 .786 Z "/>
</symbol>
<use xlink:href="#font_0_2" transform="matrix(9.9626,0,0,-9.9626,62.981916,28.54473)" fill="#000080"/>
<path transform="matrix(1,0,0,-1,7.13,156.12599)" stroke-width="1" stroke-linecap="butt" stroke-miterlimit="10" stroke-linejoin="miter" fill="none" stroke="#000080" d="M 17.00826 56.69362 C 17.00826 62.38214 14.16185 67.69582 9.42752 70.8489 "/>
<symbol id="font_0_1">
<path d="M .43600003 .24700003 C .43600003 .404 .343 .45300005 .269 .45300005 C .132 .45300005 0 .31000004 0 .16900002 C 0 .076000008 .060000004 0 .162 0 C .225 0 .29700003 .023000002 .37300004 .08400001 C .386 .031000004 .419 0 .464 0 C .517 0 .54800006 .055000005 .54800006 .071 C .54800006 .078 .542 .081 .536 .081 C .52900007 .081 .526 .078 .523 .071 C .505 .022000002 .46900005 .022000002 .467 .022000002 C .43600003 .022000002 .43600003 .1 .43600003 .124000009 C .43600003 .14500001 .43600003 .14700002 .446 .15900001 C .54 .277 .56100007 .39300005 .56100007 .39400003 C .56100007 .39600004 .56 .404 .549 .404 C .53900006 .404 .53900006 .40100003 .53400006 .38300003 C .51600006 .32000003 .48300005 .24400002 .43600003 .18500002 L .43600003 .24700003 M .36900003 .11000001 C .28100003 .033000005 .204 .022000002 .164 .022000002 C .10400001 .022000002 .074 .067 .074 .13100001 C .074 .18000002 .1 .28800003 .132 .33900003 C .17900002 .41200004 .23300001 .43100003 .268 .43100003 C .367 .43100003 .367 .3 .367 .22200002 C .367 .18500002 .367 .127 .36900003 .11000001 Z "/>
</symbol>
<use xlink:href="#font_0_1" transform="matrix(9.9626,0,0,-9.9626,13.079466,97.003589)" fill="#000080"/>
</svg>
