<?xml version="1.0" encoding="UTF-8" standalone="no"?>
<!DOCTYPE svg PUBLIC "-//W3C//DTD SVG 1.1//EN" "http://www.w3.org/Graphics/SVG/1.1/DTD/svg11.dtd">
<svg xmlns="http://www.w3.org/2000/svg" xmlns:xlink="http://www.w3.org/1999/xlink" version="1.1" width="199.978pt" height="132.627pt" viewBox="0 0 199.978 132.627">
<path transform="matrix(1,0,0,-1,5.507,111.761)" stroke-width="1" stroke-linecap="butt" stroke-miterlimit="10" stroke-linejoin="miter" fill="none" stroke="#808080" d="M 56.66324 5.96861 L 56.66324 10.22086 M 97.137 5.96861 L 97.137 10.22086 M 178.08449 5.96861 L 178.08449 10.22086 "/>
<path transform="matrix(1,0,0,-1,5.507,111.761)" stroke-width="1" stroke-linecap="butt" stroke-miterlimit="10" stroke-linejoin="miter" fill="none" stroke="#808080" d="M 14.06335 40.47374 L 18.31561 40.47374 M 14.06335 72.85274 L 18.31561 72.85274 M 14.06335 105.23174 L 18.31561 105.23174 "/>
<path transform="matrix(1,0,0,-1,5.507,111.761)" stroke-width="1" stroke-linecap="butt" stroke-miterlimit="10" stroke-linejoin="miter" fill="none" stroke="#000080" d="M 0 8.09474 L 192.28145 8.09474 "/>
<path transform="matrix(1,0,0,-1,197.78845,103.66626)" d="M 1.99252 0 L -1.19551 1.59401 L 0 0 L -1.19551 -1.59401 " fill="#000080"/>
<path transform="matrix(1,0,0,-1,5.507,111.761)" stroke-width="1" stroke-linecap="butt" stroke-miterlimit="10" stroke-linejoin="miter" fill="none" stroke="#000080" d="M 16.1895 0 L 16.1895 103.23921 "/>
<path transform="matrix(0,-1,-1,-0,21.6965,8.52179)" d="M 1.99252 0 L -1.19551 1.59401 L 0 0 L -1.19551 -1.59401 " fill="#000080"/>
<symbol id="font_0_2">
<path d="M .205 .64000007 C .205 .66400006 .205 .666 .18200003 .666 C .120000008 .60200008 .032000007 .60200008 0 .60200008 L 0 .57100006 C .020000004 .57100006 .07900001 .57100006 .13100001 .597 L .13100001 .079 C .13100001 .043 .128 .031000002 .038000004 .031000002 L .0060000049 .031000002 L .0060000049 0 C .04100001 .003 .128 .003 .168 .003 C .20800002 .003 .29500003 .003 .33000005 0 L .33000005 .031000002 L .29800005 .031000002 C .20800002 .031000002 .205 .042000005 .205 .079 L .205 .64000007 Z "/>
</symbol>
<use xlink:href="#font_0_2" transform="matrix(9.9626,0,0,-9.9626,60.565675,115.733)" fill="#000080"/>
<path transform="matrix(1,0,0,-1,59.679,119.981998)" stroke-width="1" stroke-linecap="butt" stroke-miterlimit="10" stroke-linejoin="miter" fill="none" stroke="#000080" d="M 0 0 L 4.981 0 "/>
<symbol id="font_0_4">
<path d="M .266 .165 L .266 .078 C .266 .042000005 .26400004 .031000002 .19000001 .031000002 L .16900002 .031000002 L .16900002 0 C .21000001 .003 .26200003 .003 .30400003 .003 C .34600003 .003 .39900003 .003 .44000004 0 L .44000004 .031000002 L .41900004 .031000002 C .34500004 .031000002 .34300003 .042000005 .34300003 .078 L .34300003 .165 L .44300003 .165 L .44300003 .19600001 L .34300003 .19600001 L .34300003 .651 C .34300003 .671 .34300003 .67700007 .32700003 .67700007 C .31800003 .67700007 .31500004 .67700007 .307 .665 L 0 .19600001 L 0 .165 L .266 .165 M .272 .19600001 L .028 .19600001 L .272 .569 L .272 .19600001 Z "/>
</symbol>
<use xlink:href="#font_0_4" transform="matrix(9.9626,0,0,-9.9626,59.957956,129.306)" fill="#000080"/>
<use xlink:href="#font_0_2" transform="matrix(9.9626,0,0,-9.9626,101.03867,115.733)" fill="#000080"/>
<path transform="matrix(1,0,0,-1,100.152,119.981998)" stroke-width="1" stroke-linecap="butt" stroke-miterlimit="10" stroke-linejoin="miter" fill="none" stroke="#000080" d="M 0 0 L 4.981 0 "/>
<symbol id="font_0_3">
<path d="M .07700001 .07700001 L .18300002 .18 C .33900003 .31800003 .39900003 .372 .39900003 .47200004 C .39900003 .586 .30900003 .666 .18700002 .666 C .074 .666 0 .574 0 .485 C 0 .42900003 .05 .42900003 .053000008 .42900003 C .07000001 .42900003 .105000007 .441 .105000007 .48200003 C .105000007 .508 .08700001 .53400006 .052000006 .53400006 C .044000005 .53400006 .042000008 .53400006 .039 .53300008 C .062000004 .59800007 .11600001 .63500007 .17400001 .63500007 C .26500003 .63500007 .308 .554 .308 .47200004 C .308 .39200003 .25800003 .31300003 .20300003 .25100003 L .011000004 .037 C 0 .026 0 .024 0 0 L .37100003 0 L .39900003 .17400001 L .374 .17400001 C .36900003 .14400001 .36200003 .1 .352 .085 C .345 .07700001 .279 .07700001 .257 .07700001 L .07700001 .07700001 Z "/>
</symbol>
<use xlink:href="#font_0_3" transform="matrix(9.9626,0,0,-9.9626,100.65013,129.306)" fill="#000080"/>
<use xlink:href="#font_0_2" transform="matrix(9.9626,0,0,-9.9626,181.98567,115.733)" fill="#000080"/>
<symbol id="font_0_1">
<path d="M .421 .34200005 C .421 .42200003 .416 .50200006 .381 .57600006 C .335 .67200008 .25300003 .688 .211 .688 C .15100001 .688 .07800001 .66200008 .037000006 .56900009 C .0050000029 .5 0 .42200003 0 .34200005 C 0 .26700003 .0040000008 .177 .045000007 .101 C .088 .020000002 .161 0 .21000001 0 C .264 0 .34 .021000002 .384 .116000007 C .416 .185 .421 .263 .421 .34200005 M .21000001 .022000002 C .171 .022000002 .112 .047000003 .094 .143 C .083000008 .20300001 .083000008 .29500003 .083000008 .35400004 C .083000008 .41800005 .083000008 .48400004 .091000009 .53800007 C .11 .65700009 .185 .66600009 .21000001 .66600009 C .243 .66600009 .30900003 .64800009 .328 .549 C .338 .49300004 .338 .41700004 .338 .35400004 C .338 .279 .338 .21100001 .32700003 .147 C .312 .052 .255 .022000002 .21000001 .022000002 Z "/>
</symbol>
<use xlink:href="#font_0_1" transform="matrix(9.9626,0,0,-9.9626,3.7095414,74.71718)" fill="#000080"/>
<symbol id="font_1_1">
<path d="M .106 .053000004 C .106 .082 .08200001 .106000009 .05300001 .106000009 C .024000004 .106000009 0 .082 0 .053000004 C 0 .024 .024000004 0 .05300001 0 C .08200001 0 .106 .024 .106 .053000004 Z "/>
</symbol>
<use xlink:href="#font_1_1" transform="matrix(9.9626,0,0,-9.9626,9.158784,74.498)" fill="#000080"/>
<use xlink:href="#font_0_3" transform="matrix(9.9626,0,0,-9.9626,11.56713,74.498)" fill="#000080"/>
<use xlink:href="#font_0_1" transform="matrix(9.9626,0,0,-9.9626,3.7095414,42.339189)" fill="#000080"/>
<use xlink:href="#font_1_1" transform="matrix(9.9626,0,0,-9.9626,9.158784,42.12001)" fill="#000080"/>
<use xlink:href="#font_0_4" transform="matrix(9.9626,0,0,-9.9626,11.347953,42.12001)" fill="#000080"/>
<use xlink:href="#font_0_1" transform="matrix(9.9626,0,0,-9.9626,3.7095414,9.96019)" fill="#000080"/>
<use xlink:href="#font_1_1" transform="matrix(9.9626,0,0,-9.9626,9.158784,9.741013)" fill="#000080"/>
<symbol id="font_0_5">
<path d="M .089999999 .35000003 L .089999999 .37400005 C .089999999 .62700006 .21400002 .66300007 .26500003 .66300007 C .28900004 .66300007 .33100004 .65700009 .35300002 .623 C .33800004 .623 .298 .623 .298 .57800009 C .298 .54700008 .32200004 .53200009 .344 .53200009 C .36 .53200009 .39000003 .54100009 .39000003 .58000007 C .39000003 .64000007 .34600003 .688 .263 .688 C .13499999 .688 0 .559 0 .33800004 C 0 .071 .116000007 0 .20900002 0 C .32000003 0 .41500003 .094000007 .41500003 .22600001 C .41500003 .35300005 .32600004 .44900004 .215 .44900004 C .14700002 .44900004 .11000001 .39800004 .089999999 .35000003 M .20900002 .028 C .146 .028 .116000007 .088 .11000001 .103 C .092 .15 .092 .23 .092 .24800001 C .092 .32600004 .124000009 .42600004 .21400002 .42600004 C .23000002 .42600004 .27600003 .42600004 .307 .36400003 C .32500003 .32700003 .32500003 .27600003 .32500003 .22700002 C .32500003 .179 .32500003 .12900001 .30800004 .093 C .27800004 .033000005 .23200003 .028 .20900002 .028 Z "/>
</symbol>
<use xlink:href="#font_0_5" transform="matrix(9.9626,0,0,-9.9626,11.48743,9.96019)" fill="#000080"/>
<path transform="matrix(1,0,0,-1,5.507,111.761)" d="M 56.66487 78.19608 C 56.66487 78.19608 54.47351 76.88823 53.64713 76.36183 C 52.82072 75.83543 51.51132 74.96419 50.70874 74.40207 C 49.90617 73.83994 48.63983 72.90675 47.86263 72.31038 C 47.08543 71.714 45.85774 70.73349 45.10716 70.10376 C 44.35658 69.47403 43.17528 68.43372 42.4529 67.77164 C 41.73051 67.10957 40.59315 66.02463 39.90063 65.3319 C 39.20813 64.63916 38.12364 63.50108 37.46167 62.77881 C 36.7997 62.05653 35.75952 60.87665 35.12956 60.12617 C 34.4996 59.3757 33.5177 58.14732 32.92133 57.36989 C 32.32495 56.59245 31.39328 55.32544 30.83128 54.52296 C 30.26927 53.7205 29.39734 52.41237 28.87071 51.5862 C 28.34409 50.76004 27.52553 49.41713 27.03563 48.5685 C 26.54573 47.71985 25.79205 46.33888 25.33977 45.4698 C 24.8875 44.60074 24.18996 43.1927 23.77588 42.30476 C 23.36179 41.41681 22.73038 39.97522 22.35526 39.0701 C 21.98015 38.16496 21.40727 36.70183 21.07225 35.7812 C 20.73723 34.8606 20.23518 33.36938 19.9406 32.43484 C 19.64601 31.5003 19.20247 29.99203 18.94899 29.04558 C 18.69551 28.09912 18.32578 26.56996 18.11362 25.61339 C 17.90146 24.65683 17.59024 23.11613 17.41988 22.15126 C 17.24951 21.1864 17.01332 19.63058 16.88562 18.6592 C 16.75792 17.6878 16.58485 16.12611 16.49951 15.15012 C 16.41415 14.17412 16.31322 12.60378 16.27045 11.62485 C 16.22766 10.64594 16.19112 8.09474 16.19112 8.09474 L 56.66487 8.09474 Z " fill="#8080ff"/>
<path transform="matrix(1,0,0,-1,5.507,111.761)" stroke-width="1.19553" stroke-linecap="butt" stroke-miterlimit="10" stroke-linejoin="miter" fill="none" stroke="#000080" d="M 178.08449 8.09474 C 178.08449 8.09474 177.7712 15.75253 177.38834 18.6592 C 177.00548 21.56586 176.08386 26.2122 175.32497 29.04395 C 174.56607 31.8757 173.0407 36.35973 171.9187 39.06848 C 170.79669 41.77725 168.70412 46.02768 167.23833 48.56685 C 165.77254 51.10602 163.13913 55.04297 161.35425 57.36908 C 159.56937 59.69519 156.44734 63.25883 154.37415 65.3319 C 152.30097 67.40495 148.73802 70.5255 146.41213 72.31038 C 144.08625 74.09526 140.14978 76.73006 137.61074 78.19608 C 135.07169 79.6621 130.82134 81.75446 128.11234 82.87645 C 125.40335 83.99844 120.91805 85.52383 118.0862 86.28273 C 115.25433 87.04163 110.60892 87.96346 107.70226 88.34608 C 104.7956 88.72873 100.06868 89.04059 97.137 89.04059 C 94.20529 89.04059 89.47906 88.72873 86.57253 88.34608 C 83.66599 87.96346 79.02032 87.04163 76.18858 86.28273 C 73.35684 85.52383 68.872 83.99821 66.16322 82.87645 C 63.45447 81.75468 59.20485 79.66348 56.66566 78.1977 C 54.1265 76.7319 50.18875 74.09709 47.86263 72.312 C 45.53651 70.52692 41.97372 67.40485 39.90063 65.3319 C 37.82756 63.25894 34.70631 59.69742 32.92133 57.37154 C 31.13634 55.04564 28.50142 51.10754 27.03563 48.5685 C 25.56984 46.02943 23.47888 41.78049 22.35689 39.07172 C 21.2349 36.36296 19.70811 31.87766 18.94899 29.04558 C 18.18987 26.2135 17.26825 21.56668 16.88562 18.66 C 16.50299 15.75334 16.19112 8.09637 16.19112 8.09637 "/>
<symbol id="font_1_2">
<path d="M .305 .31300003 C .311 .33900003 .334 .43100003 .404 .43100003 C .409 .43100003 .433 .43100003 .454 .418 C .426 .41300003 .40600003 .388 .40600003 .36400003 C .40600003 .34800003 .417 .32900004 .444 .32900004 C .46600003 .32900004 .498 .34700004 .498 .38700003 C .498 .43900005 .439 .45300005 .405 .45300005 C .347 .45300005 .312 .40000005 .3 .37700004 C .275 .44300003 .221 .45300005 .19200002 .45300005 C .08800001 .45300005 .031000002 .32400004 .031000002 .29900003 C .031000002 .28900004 .041 .28900004 .043000007 .28900004 C .051000008 .28900004 .054000006 .291 .056 .3 C .09 .40600003 .156 .43100003 .19000001 .43100003 C .209 .43100003 .244 .42200003 .244 .36400003 C .244 .33300004 .22700002 .26600004 .19000001 .126 C .17400001 .064 .13900002 .022000002 .095000009 .022000002 C .08900001 .022000002 .06600001 .022000002 .045 .035 C .07000001 .040000004 .09200001 .061 .09200001 .089 C .09200001 .116000007 .07000001 .124000009 .055000009 .124000009 C .025 .124000009 0 .098000008 0 .06600001 C 0 .020000002 .050000006 0 .094000007 0 C .16000001 0 .19600001 .07000001 .19900002 .076000008 C .21100001 .039 .24700003 0 .307 0 C .41 0 .467 .12900001 .467 .15400002 C .467 .16400002 .458 .16400002 .455 .16400002 C .446 .16400002 .444 .16000001 .442 .15300001 C .409 .046 .341 .022000002 .30900003 .022000002 C .27 .022000002 .254 .054 .254 .08800001 C .254 .11000001 .26 .13200002 .271 .17600002 L .305 .31300003 Z "/>
</symbol>
<use xlink:href="#font_1_2" transform="matrix(9.9626,0,0,-9.9626,190.88292,100.255588)" fill="#000080"/>
<symbol id="font_1_3">
<path d="M .45700003 .586 C .461 .6 .461 .602 .461 .609 C .461 .62700006 .447 .63600006 .432 .63600006 C .42200003 .63600006 .40600003 .63 .397 .615 C .395 .61 .387 .579 .38300003 .561 C .37600003 .535 .36900003 .508 .363 .48100005 L .318 .301 C .314 .286 .271 .21600002 .20500002 .21600002 C .15400002 .21600002 .143 .26000003 .143 .29700003 C .143 .34300003 .16000001 .40500004 .194 .49300004 C .21000001 .53400006 .21400002 .545 .21400002 .56500008 C .21400002 .61 .18200001 .6470001 .13200002 .6470001 C .037 .6470001 0 .50200006 0 .49300004 C 0 .48300005 .01 .48300005 .012 .48300005 C .022000002 .48300005 .023 .485 .028000003 .50100007 C .055000009 .595 .095000009 .625 .12900001 .625 C .13700001 .625 .15400002 .625 .15400002 .59300008 C .15400002 .568 .14400001 .54200008 .13700001 .523 C .097 .41700004 .079 .36 .079 .31300003 C .079 .224 .142 .194 .201 .194 C .24000003 .194 .274 .21100001 .30200003 .23900002 C .289 .187 .277 .13800001 .237 .08500001 C .21100001 .051 .17300001 .022 .127 .022 C .113000009 .022 .068 .025000006 .051000008 .06400001 C .067 .06400001 .080000009 .06400001 .094000007 .076000008 C .104 .08500001 .11400001 .098000008 .11400001 .117000009 C .11400001 .148 .087000008 .15200001 .07700001 .15200001 C .054000006 .15200001 .021 .136 .021 .087000008 C .021 .037 .065000008 0 .127 0 C .23 0 .333 .091000009 .361 .20400001 L .45700003 .586 Z "/>
</symbol>
<use xlink:href="#font_1_3" transform="matrix(9.9626,0,0,-9.9626,25.507916,16.382346)" fill="#000080"/>
</svg>
